<svg width="365" height="75" viewBox="0 0 365 75" fill="none" xmlns="http://www.w3.org/2000/svg">
<g filter="url(#filter0_d_19_123)">
<rect x="4" width="357" height="67" rx="30" fill="url(#paint0_linear_19_123)"/>
<rect x="4.5" y="0.5" width="356" height="66" rx="29.5" stroke="#2E236C"/>
</g>
<path d="M105.744 46.48C104.251 46.48 102.848 46.2187 101.536 45.696C100.235 45.1627 99.088 44.384 98.096 43.36C97.1147 42.336 96.3467 41.0827 95.792 39.6C95.2373 38.1067 94.96 36.4 94.96 34.48C94.96 31.9627 95.4293 29.8133 96.368 28.032C97.3067 26.24 98.592 24.8693 100.224 23.92C101.856 22.96 103.696 22.48 105.744 22.48C108.581 22.48 110.827 23.1413 112.48 24.464C114.144 25.776 115.269 27.6213 115.856 30L111.92 30.624C111.483 29.2587 110.768 28.1707 109.776 27.36C108.784 26.5387 107.52 26.128 105.984 26.128C104.437 26.1067 103.152 26.4427 102.128 27.136C101.104 27.8293 100.331 28.8053 99.808 30.064C99.296 31.3227 99.04 32.7947 99.04 34.48C99.04 36.1653 99.296 37.632 99.808 38.88C100.32 40.1173 101.088 41.0827 102.112 41.776C103.147 42.4693 104.437 42.8267 105.984 42.848C107.147 42.8587 108.165 42.6507 109.04 42.224C109.915 41.7867 110.629 41.1307 111.184 40.256C111.739 39.3707 112.112 38.2667 112.304 36.944H108.24V33.92H116.4C116.421 34.0907 116.437 34.3413 116.448 34.672C116.459 35.0027 116.464 35.2 116.464 35.264C116.464 37.44 116.032 39.376 115.168 41.072C114.315 42.7573 113.088 44.08 111.488 45.04C109.888 46 107.973 46.48 105.744 46.48ZM127.534 46.48C125.784 46.48 124.248 46.1013 122.926 45.344C121.603 44.5867 120.568 43.536 119.822 42.192C119.086 40.848 118.718 39.3013 118.718 37.552C118.718 35.664 119.08 34.0267 119.806 32.64C120.531 31.2427 121.539 30.16 122.83 29.392C124.12 28.624 125.614 28.24 127.31 28.24C129.102 28.24 130.622 28.6613 131.87 29.504C133.128 30.336 134.062 31.5147 134.67 33.04C135.278 34.5653 135.507 36.3627 135.358 38.432H131.534V37.024C131.523 35.1467 131.192 33.776 130.542 32.912C129.891 32.048 128.867 31.616 127.47 31.616C125.891 31.616 124.718 32.1067 123.95 33.088C123.182 34.0587 122.798 35.4827 122.798 37.36C122.798 39.1093 123.182 40.464 123.95 41.424C124.718 42.384 125.838 42.864 127.31 42.864C128.259 42.864 129.075 42.656 129.758 42.24C130.451 41.8133 130.984 41.2 131.358 40.4L135.166 41.552C134.504 43.1093 133.48 44.32 132.094 45.184C130.718 46.048 129.198 46.48 127.534 46.48ZM121.582 38.432V35.52H133.47V38.432H121.582ZM149.056 46C147.914 46.2133 146.794 46.304 145.696 46.272C144.608 46.2507 143.632 46.0533 142.768 45.68C141.904 45.296 141.248 44.6933 140.799 43.872C140.405 43.1253 140.197 42.3627 140.176 41.584C140.154 40.8053 140.144 39.9253 140.144 38.944V23.92H143.984V38.72C143.984 39.4133 143.989 40.0213 144 40.544C144.021 41.0667 144.133 41.4933 144.336 41.824C144.72 42.464 145.333 42.8213 146.176 42.896C147.018 42.9707 147.978 42.928 149.056 42.768V46ZM137.008 31.744V28.72H149.056V31.744H137.008ZM165.85 46.48C163.716 46.48 161.983 46 160.65 45.04C159.316 44.08 158.506 42.7307 158.218 40.992L162.154 40.384C162.356 41.2373 162.804 41.9093 163.498 42.4C164.191 42.8907 165.066 43.136 166.122 43.136C167.05 43.136 167.764 42.9547 168.266 42.592C168.778 42.2187 169.034 41.712 169.034 41.072C169.034 40.6773 168.938 40.3627 168.746 40.128C168.564 39.8827 168.159 39.648 167.53 39.424C166.9 39.2 165.935 38.9173 164.634 38.576C163.183 38.192 162.031 37.7813 161.178 37.344C160.324 36.896 159.711 36.368 159.338 35.76C158.964 35.152 158.778 34.416 158.778 33.552C158.778 32.4747 159.06 31.536 159.626 30.736C160.191 29.936 160.98 29.3227 161.994 28.896C163.007 28.4587 164.202 28.24 165.578 28.24C166.922 28.24 168.111 28.448 169.146 28.864C170.191 29.28 171.034 29.872 171.674 30.64C172.314 31.408 172.708 32.3093 172.858 33.344L168.922 34.048C168.826 33.312 168.49 32.7307 167.914 32.304C167.348 31.8773 166.591 31.6373 165.642 31.584C164.735 31.5307 164.004 31.6693 163.45 32C162.895 32.32 162.618 32.7733 162.618 33.36C162.618 33.6907 162.73 33.9733 162.954 34.208C163.178 34.4427 163.626 34.6773 164.298 34.912C164.98 35.1467 165.994 35.4347 167.338 35.776C168.714 36.128 169.812 36.5333 170.634 36.992C171.466 37.44 172.063 37.9787 172.426 38.608C172.799 39.2373 172.986 40 172.986 40.896C172.986 42.6347 172.351 44 171.082 44.992C169.823 45.984 168.079 46.48 165.85 46.48ZM186.618 46C185.477 46.2133 184.357 46.304 183.258 46.272C182.17 46.2507 181.194 46.0533 180.33 45.68C179.466 45.296 178.81 44.6933 178.362 43.872C177.967 43.1253 177.759 42.3627 177.738 41.584C177.717 40.8053 177.706 39.9253 177.706 38.944V23.92H181.546V38.72C181.546 39.4133 181.551 40.0213 181.562 40.544C181.583 41.0667 181.695 41.4933 181.898 41.824C182.282 42.464 182.895 42.8213 183.738 42.896C184.581 42.9707 185.541 42.928 186.618 42.768V46ZM174.57 31.744V28.72H186.618V31.744H174.57ZM195.166 46.48C193.918 46.48 192.862 46.2453 191.998 45.776C191.134 45.296 190.478 44.6613 190.03 43.872C189.592 43.0827 189.374 42.2133 189.374 41.264C189.374 40.432 189.512 39.6853 189.79 39.024C190.067 38.352 190.494 37.776 191.07 37.296C191.646 36.8053 192.392 36.4053 193.31 36.096C194.003 35.872 194.814 35.6693 195.742 35.488C196.68 35.3067 197.694 35.1413 198.782 34.992C199.88 34.832 201.027 34.6613 202.222 34.48L200.846 35.264C200.856 34.0693 200.59 33.1893 200.046 32.624C199.502 32.0587 198.584 31.776 197.294 31.776C196.515 31.776 195.763 31.9573 195.038 32.32C194.312 32.6827 193.806 33.3067 193.518 34.192L189.998 33.088C190.424 31.6267 191.235 30.4533 192.43 29.568C193.635 28.6827 195.256 28.24 197.294 28.24C198.83 28.24 200.179 28.4907 201.342 28.992C202.515 29.4933 203.384 30.3147 203.95 31.456C204.259 32.064 204.446 32.688 204.51 33.328C204.574 33.9573 204.606 34.6453 204.606 35.392V46H201.23V42.256L201.79 42.864C201.011 44.112 200.099 45.0293 199.054 45.616C198.019 46.192 196.723 46.48 195.166 46.48ZM195.934 43.408C196.808 43.408 197.555 43.2533 198.174 42.944C198.792 42.6347 199.283 42.256 199.646 41.808C200.019 41.36 200.27 40.9387 200.398 40.544C200.6 40.0533 200.712 39.4933 200.734 38.864C200.766 38.224 200.782 37.7067 200.782 37.312L201.966 37.664C200.803 37.8453 199.806 38.0053 198.974 38.144C198.142 38.2827 197.427 38.416 196.83 38.544C196.232 38.6613 195.704 38.7947 195.246 38.944C194.798 39.104 194.419 39.2907 194.11 39.504C193.8 39.7173 193.56 39.9627 193.39 40.24C193.23 40.5173 193.15 40.8427 193.15 41.216C193.15 41.6427 193.256 42.0213 193.47 42.352C193.683 42.672 193.992 42.928 194.398 43.12C194.814 43.312 195.326 43.408 195.934 43.408ZM208.771 46V28.72H212.179V32.928L211.763 32.384C211.977 31.808 212.259 31.2853 212.611 30.816C212.974 30.336 213.406 29.9413 213.907 29.632C214.334 29.344 214.803 29.12 215.315 28.96C215.838 28.7893 216.371 28.688 216.915 28.656C217.459 28.6133 217.987 28.6347 218.499 28.72V32.32C217.987 32.1707 217.395 32.1227 216.723 32.176C216.062 32.2293 215.465 32.416 214.931 32.736C214.398 33.024 213.961 33.392 213.619 33.84C213.289 34.288 213.043 34.8 212.883 35.376C212.723 35.9413 212.643 36.5547 212.643 37.216V46H208.771ZM231.681 46C230.539 46.2133 229.419 46.304 228.321 46.272C227.233 46.2507 226.257 46.0533 225.393 45.68C224.529 45.296 223.873 44.6933 223.424 43.872C223.03 43.1253 222.822 42.3627 222.801 41.584C222.779 40.8053 222.769 39.9253 222.769 38.944V23.92H226.609V38.72C226.609 39.4133 226.614 40.0213 226.625 40.544C226.646 41.0667 226.758 41.4933 226.961 41.824C227.345 42.464 227.958 42.8213 228.801 42.896C229.643 42.9707 230.603 42.928 231.681 42.768V46ZM219.633 31.744V28.72H231.681V31.744H219.633ZM242.377 46.48C240.628 46.48 239.092 46.1013 237.769 45.344C236.447 44.5867 235.412 43.536 234.665 42.192C233.929 40.848 233.561 39.3013 233.561 37.552C233.561 35.664 233.924 34.0267 234.649 32.64C235.375 31.2427 236.383 30.16 237.673 29.392C238.964 28.624 240.457 28.24 242.153 28.24C243.945 28.24 245.465 28.6613 246.713 29.504C247.972 30.336 248.905 31.5147 249.513 33.04C250.121 34.5653 250.351 36.3627 250.201 38.432H246.377V37.024C246.367 35.1467 246.036 33.776 245.385 32.912C244.735 32.048 243.711 31.616 242.313 31.616C240.735 31.616 239.561 32.1067 238.793 33.088C238.025 34.0587 237.641 35.4827 237.641 37.36C237.641 39.1093 238.025 40.464 238.793 41.424C239.561 42.384 240.681 42.864 242.153 42.864C243.103 42.864 243.919 42.656 244.601 42.24C245.295 41.8133 245.828 41.2 246.201 40.4L250.009 41.552C249.348 43.1093 248.324 44.32 246.937 45.184C245.561 46.048 244.041 46.48 242.377 46.48ZM236.425 38.432V35.52H248.313V38.432H236.425ZM260.699 46.48C259.11 46.48 257.723 46.08 256.539 45.28C255.355 44.48 254.438 43.392 253.787 42.016C253.137 40.64 252.811 39.088 252.811 37.36C252.811 35.6107 253.137 34.0533 253.787 32.688C254.449 31.312 255.382 30.2293 256.587 29.44C257.793 28.64 259.211 28.24 260.843 28.24C262.486 28.24 263.862 28.64 264.971 29.44C266.091 30.2293 266.939 31.312 267.515 32.688C268.091 34.064 268.379 35.6213 268.379 37.36C268.379 39.0773 268.091 40.6293 267.515 42.016C266.939 43.392 266.081 44.48 264.939 45.28C263.798 46.08 262.385 46.48 260.699 46.48ZM261.291 43.024C262.326 43.024 263.158 42.7893 263.787 42.32C264.427 41.84 264.891 41.1733 265.179 40.32C265.478 39.4667 265.627 38.48 265.627 37.36C265.627 36.2293 265.478 35.2427 265.179 34.4C264.891 33.5467 264.438 32.8853 263.819 32.416C263.201 31.936 262.401 31.696 261.419 31.696C260.385 31.696 259.531 31.952 258.859 32.464C258.187 32.9653 257.691 33.648 257.371 34.512C257.051 35.3653 256.891 36.3147 256.891 37.36C256.891 38.416 257.046 39.376 257.355 40.24C257.675 41.0933 258.161 41.7707 258.811 42.272C259.462 42.7733 260.289 43.024 261.291 43.024ZM265.627 46V33.872H265.147V22.96H269.035V46H265.627Z" fill="white"/>
<g filter="url(#filter1_d_19_123)">
<rect x="4" width="357" height="67" rx="33.5" fill="url(#paint1_linear_19_123)"/>
<rect x="4.5" y="0.5" width="356" height="66" rx="33" stroke="#2E236C"/>
</g>
<path d="M168.6 41V26.6H170.38V39.31H177.06V41H168.6ZM183.432 41.3C182.372 41.3 181.445 41.0667 180.652 40.6C179.865 40.1267 179.252 39.47 178.812 38.63C178.372 37.7833 178.152 36.7967 178.152 35.67C178.152 34.49 178.368 33.47 178.802 32.61C179.235 31.7433 179.838 31.0767 180.612 30.61C181.392 30.1367 182.305 29.9 183.352 29.9C184.438 29.9 185.362 30.15 186.122 30.65C186.888 31.15 187.462 31.8633 187.842 32.79C188.228 33.7167 188.395 34.82 188.342 36.1H186.542V35.46C186.522 34.1333 186.252 33.1433 185.732 32.49C185.212 31.83 184.438 31.5 183.412 31.5C182.312 31.5 181.475 31.8533 180.902 32.56C180.328 33.2667 180.042 34.28 180.042 35.6C180.042 36.8733 180.328 37.86 180.902 38.56C181.475 39.26 182.292 39.61 183.352 39.61C184.065 39.61 184.685 39.4467 185.212 39.12C185.738 38.7933 186.152 38.3233 186.452 37.71L188.162 38.3C187.742 39.2533 187.108 39.9933 186.262 40.52C185.422 41.04 184.478 41.3 183.432 41.3ZM179.442 36.1V34.67H187.422V36.1H179.442ZM196.598 41C195.958 41.1267 195.325 41.1767 194.698 41.15C194.078 41.13 193.525 41.0067 193.038 40.78C192.551 40.5467 192.181 40.1867 191.928 39.7C191.715 39.2733 191.598 38.8433 191.578 38.41C191.565 37.97 191.558 37.4733 191.558 36.92V27.2H193.338V36.84C193.338 37.28 193.341 37.6567 193.348 37.97C193.361 38.2833 193.431 38.5533 193.558 38.78C193.798 39.2067 194.178 39.4567 194.698 39.53C195.225 39.6033 195.858 39.5833 196.598 39.47V41ZM189.368 31.67V30.2H196.598V31.67H189.368ZM198.891 31.1L199.001 30.27C199.281 30.29 199.491 30.2367 199.631 30.11C199.771 29.9833 199.861 29.81 199.901 29.59C199.941 29.37 199.947 29.1267 199.921 28.86H198.891V26.6H200.851V29.16C200.851 29.86 200.677 30.3867 200.331 30.74C199.991 31.0933 199.511 31.2133 198.891 31.1ZM206.113 41.29C204.826 41.29 203.769 41.01 202.943 40.45C202.123 39.8833 201.619 39.0933 201.433 38.08L203.253 37.79C203.399 38.3767 203.736 38.8433 204.263 39.19C204.789 39.53 205.443 39.7 206.223 39.7C206.963 39.7 207.543 39.5467 207.963 39.24C208.383 38.9333 208.593 38.5167 208.593 37.99C208.593 37.6833 208.523 37.4367 208.383 37.25C208.243 37.0567 207.953 36.8767 207.513 36.71C207.079 36.5433 206.423 36.3433 205.543 36.11C204.589 35.8567 203.839 35.5933 203.293 35.32C202.746 35.0467 202.356 34.73 202.123 34.37C201.889 34.01 201.773 33.5733 201.773 33.06C201.773 32.4267 201.946 31.8733 202.293 31.4C202.639 30.92 203.123 30.55 203.743 30.29C204.369 30.03 205.096 29.9 205.923 29.9C206.743 29.9 207.476 30.03 208.123 30.29C208.769 30.55 209.289 30.92 209.683 31.4C210.083 31.8733 210.319 32.4267 210.393 33.06L208.573 33.39C208.486 32.81 208.206 32.3533 207.733 32.02C207.266 31.6867 206.663 31.51 205.923 31.49C205.223 31.4633 204.653 31.5867 204.213 31.86C203.779 32.1333 203.563 32.5033 203.563 32.97C203.563 33.23 203.643 33.4533 203.803 33.64C203.969 33.8267 204.273 34.0033 204.713 34.17C205.159 34.3367 205.806 34.5267 206.653 34.74C207.606 34.98 208.356 35.2433 208.903 35.53C209.456 35.81 209.849 36.1433 210.083 36.53C210.316 36.91 210.433 37.38 210.433 37.94C210.433 38.98 210.049 39.8 209.283 40.4C208.516 40.9933 207.459 41.29 206.113 41.29ZM221.012 46.1C220.446 46.1 219.892 46.0133 219.352 45.84C218.812 45.6667 218.316 45.4033 217.862 45.05C217.416 44.7033 217.042 44.2633 216.742 43.73L218.372 42.87C218.639 43.3967 219.016 43.78 219.502 44.02C219.996 44.26 220.502 44.38 221.022 44.38C221.709 44.38 222.279 44.2533 222.732 44C223.186 43.7533 223.519 43.3833 223.732 42.89C223.952 42.3967 224.059 41.7833 224.052 41.05V38.1H224.262V30.2H225.842V41.07C225.842 41.3633 225.832 41.6467 225.812 41.92C225.799 42.1933 225.766 42.4633 225.712 42.73C225.572 43.4967 225.296 44.1267 224.882 44.62C224.469 45.12 223.936 45.49 223.282 45.73C222.629 45.9767 221.872 46.1 221.012 46.1ZM220.882 41.3C219.876 41.3 219.012 41.05 218.292 40.55C217.572 40.0433 217.016 39.36 216.622 38.5C216.236 37.64 216.042 36.67 216.042 35.59C216.042 34.51 216.236 33.54 216.622 32.68C217.016 31.82 217.572 31.1433 218.292 30.65C219.012 30.15 219.872 29.9 220.872 29.9C221.892 29.9 222.749 30.1467 223.442 30.64C224.136 31.1333 224.659 31.81 225.012 32.67C225.372 33.53 225.552 34.5033 225.552 35.59C225.552 36.6633 225.372 37.6333 225.012 38.5C224.659 39.36 224.136 40.0433 223.442 40.55C222.749 41.05 221.896 41.3 220.882 41.3ZM221.102 39.67C221.829 39.67 222.426 39.4967 222.892 39.15C223.359 38.7967 223.702 38.3133 223.922 37.7C224.149 37.08 224.262 36.3767 224.262 35.59C224.262 34.79 224.149 34.0867 223.922 33.48C223.702 32.8667 223.362 32.39 222.902 32.05C222.442 31.7033 221.859 31.53 221.152 31.53C220.419 31.53 219.812 31.71 219.332 32.07C218.859 32.43 218.506 32.9167 218.272 33.53C218.046 34.1433 217.932 34.83 217.932 35.59C217.932 36.3567 218.049 37.05 218.282 37.67C218.516 38.2833 218.866 38.77 219.332 39.13C219.806 39.49 220.396 39.67 221.102 39.67ZM233.314 41.3C232.254 41.3 231.328 41.0667 230.534 40.6C229.748 40.1267 229.134 39.47 228.694 38.63C228.254 37.7833 228.034 36.7967 228.034 35.67C228.034 34.49 228.251 33.47 228.684 32.61C229.118 31.7433 229.721 31.0767 230.494 30.61C231.274 30.1367 232.188 29.9 233.234 29.9C234.321 29.9 235.244 30.15 236.004 30.65C236.771 31.15 237.344 31.8633 237.724 32.79C238.111 33.7167 238.278 34.82 238.224 36.1H236.424V35.46C236.404 34.1333 236.134 33.1433 235.614 32.49C235.094 31.83 234.321 31.5 233.294 31.5C232.194 31.5 231.358 31.8533 230.784 32.56C230.211 33.2667 229.924 34.28 229.924 35.6C229.924 36.8733 230.211 37.86 230.784 38.56C231.358 39.26 232.174 39.61 233.234 39.61C233.948 39.61 234.568 39.4467 235.094 39.12C235.621 38.7933 236.034 38.3233 236.334 37.71L238.044 38.3C237.624 39.2533 236.991 39.9933 236.144 40.52C235.304 41.04 234.361 41.3 233.314 41.3ZM229.324 36.1V34.67H237.304V36.1H229.324ZM246.481 41C245.841 41.1267 245.207 41.1767 244.581 41.15C243.961 41.13 243.407 41.0067 242.921 40.78C242.434 40.5467 242.064 40.1867 241.811 39.7C241.597 39.2733 241.481 38.8433 241.461 38.41C241.447 37.97 241.441 37.4733 241.441 36.92V27.2H243.221V36.84C243.221 37.28 243.224 37.6567 243.231 37.97C243.244 38.2833 243.314 38.5533 243.441 38.78C243.681 39.2067 244.061 39.4567 244.581 39.53C245.107 39.6033 245.741 39.5833 246.481 39.47V41ZM239.251 31.67V30.2H246.481V31.67H239.251ZM256.757 41.29C255.471 41.29 254.414 41.01 253.587 40.45C252.767 39.8833 252.264 39.0933 252.077 38.08L253.897 37.79C254.044 38.3767 254.381 38.8433 254.907 39.19C255.434 39.53 256.087 39.7 256.867 39.7C257.607 39.7 258.187 39.5467 258.607 39.24C259.027 38.9333 259.237 38.5167 259.237 37.99C259.237 37.6833 259.167 37.4367 259.027 37.25C258.887 37.0567 258.597 36.8767 258.157 36.71C257.724 36.5433 257.067 36.3433 256.187 36.11C255.234 35.8567 254.484 35.5933 253.937 35.32C253.391 35.0467 253.001 34.73 252.767 34.37C252.534 34.01 252.417 33.5733 252.417 33.06C252.417 32.4267 252.591 31.8733 252.937 31.4C253.284 30.92 253.767 30.55 254.387 30.29C255.014 30.03 255.741 29.9 256.567 29.9C257.387 29.9 258.121 30.03 258.767 30.29C259.414 30.55 259.934 30.92 260.327 31.4C260.727 31.8733 260.964 32.4267 261.037 33.06L259.217 33.39C259.131 32.81 258.851 32.3533 258.377 32.02C257.911 31.6867 257.307 31.51 256.567 31.49C255.867 31.4633 255.297 31.5867 254.857 31.86C254.424 32.1333 254.207 32.5033 254.207 32.97C254.207 33.23 254.287 33.4533 254.447 33.64C254.614 33.8267 254.917 34.0033 255.357 34.17C255.804 34.3367 256.451 34.5267 257.297 34.74C258.251 34.98 259.001 35.2433 259.547 35.53C260.101 35.81 260.494 36.1433 260.727 36.53C260.961 36.91 261.077 37.38 261.077 37.94C261.077 38.98 260.694 39.8 259.927 40.4C259.161 40.9933 258.104 41.29 256.757 41.29ZM269.313 41C268.673 41.1267 268.039 41.1767 267.413 41.15C266.793 41.13 266.239 41.0067 265.753 40.78C265.266 40.5467 264.896 40.1867 264.643 39.7C264.429 39.2733 264.313 38.8433 264.293 38.41C264.279 37.97 264.273 37.4733 264.273 36.92V27.2H266.053V36.84C266.053 37.28 266.056 37.6567 266.063 37.97C266.076 38.2833 266.146 38.5533 266.273 38.78C266.513 39.2067 266.893 39.4567 267.413 39.53C267.939 39.6033 268.573 39.5833 269.313 39.47V41ZM262.083 31.67V30.2H269.313V31.67H262.083ZM274.575 41.3C273.769 41.3 273.092 41.1533 272.545 40.86C272.005 40.56 271.595 40.1667 271.315 39.68C271.042 39.1933 270.905 38.66 270.905 38.08C270.905 37.5133 271.012 37.0233 271.225 36.61C271.445 36.19 271.752 35.8433 272.145 35.57C272.539 35.29 273.009 35.07 273.555 34.91C274.069 34.77 274.642 34.65 275.275 34.55C275.915 34.4433 276.562 34.3467 277.215 34.26C277.869 34.1733 278.479 34.09 279.045 34.01L278.405 34.38C278.425 33.42 278.232 32.71 277.825 32.25C277.425 31.79 276.732 31.56 275.745 31.56C275.092 31.56 274.519 31.71 274.025 32.01C273.539 32.3033 273.195 32.7833 272.995 33.45L271.305 32.94C271.565 31.9933 272.069 31.25 272.815 30.71C273.562 30.17 274.545 29.9 275.765 29.9C276.745 29.9 277.585 30.0767 278.285 30.43C278.992 30.7767 279.499 31.3033 279.805 32.01C279.959 32.3433 280.055 32.7067 280.095 33.1C280.135 33.4867 280.155 33.8933 280.155 34.32V41H278.575V38.41L278.945 38.65C278.539 39.5233 277.969 40.1833 277.235 40.63C276.509 41.0767 275.622 41.3 274.575 41.3ZM274.845 39.81C275.485 39.81 276.039 39.6967 276.505 39.47C276.979 39.2367 277.359 38.9333 277.645 38.56C277.932 38.18 278.119 37.7667 278.205 37.32C278.305 36.9867 278.359 36.6167 278.365 36.21C278.379 35.7967 278.385 35.48 278.385 35.26L279.005 35.53C278.425 35.61 277.855 35.6867 277.295 35.76C276.735 35.8333 276.205 35.9133 275.705 36C275.205 36.08 274.755 36.1767 274.355 36.29C274.062 36.3833 273.785 36.5033 273.525 36.65C273.272 36.7967 273.065 36.9867 272.905 37.22C272.752 37.4467 272.675 37.73 272.675 38.07C272.675 38.3633 272.749 38.6433 272.895 38.91C273.049 39.1767 273.282 39.3933 273.595 39.56C273.915 39.7267 274.332 39.81 274.845 39.81ZM282.755 41V30.2H284.345V32.81L284.085 32.47C284.212 32.1367 284.375 31.83 284.575 31.55C284.782 31.27 285.012 31.04 285.265 30.86C285.545 30.6333 285.862 30.46 286.215 30.34C286.569 30.22 286.929 30.15 287.295 30.13C287.662 30.1033 288.005 30.1267 288.325 30.2V31.87C287.952 31.77 287.542 31.7433 287.095 31.79C286.649 31.8367 286.235 32 285.855 32.28C285.509 32.5267 285.239 32.8267 285.045 33.18C284.859 33.5333 284.729 33.9167 284.655 34.33C284.582 34.7367 284.545 35.1533 284.545 35.58V41H282.755ZM296.246 41C295.606 41.1267 294.973 41.1767 294.346 41.15C293.726 41.13 293.173 41.0067 292.686 40.78C292.2 40.5467 291.83 40.1867 291.576 39.7C291.363 39.2733 291.246 38.8433 291.226 38.41C291.213 37.97 291.206 37.4733 291.206 36.92V27.2H292.986V36.84C292.986 37.28 292.99 37.6567 292.996 37.97C293.01 38.2833 293.08 38.5533 293.206 38.78C293.446 39.2067 293.826 39.4567 294.346 39.53C294.873 39.6033 295.506 39.5833 296.246 39.47V41ZM289.016 31.67V30.2H296.246V31.67H289.016ZM302.67 41.3C301.61 41.3 300.683 41.0667 299.89 40.6C299.103 40.1267 298.49 39.47 298.05 38.63C297.61 37.7833 297.39 36.7967 297.39 35.67C297.39 34.49 297.607 33.47 298.04 32.61C298.473 31.7433 299.077 31.0767 299.85 30.61C300.63 30.1367 301.543 29.9 302.59 29.9C303.677 29.9 304.6 30.15 305.36 30.65C306.127 31.15 306.7 31.8633 307.08 32.79C307.467 33.7167 307.633 34.82 307.58 36.1H305.78V35.46C305.76 34.1333 305.49 33.1433 304.97 32.49C304.45 31.83 303.677 31.5 302.65 31.5C301.55 31.5 300.713 31.8533 300.14 32.56C299.567 33.2667 299.28 34.28 299.28 35.6C299.28 36.8733 299.567 37.86 300.14 38.56C300.713 39.26 301.53 39.61 302.59 39.61C303.303 39.61 303.923 39.4467 304.45 39.12C304.977 38.7933 305.39 38.3233 305.69 37.71L307.4 38.3C306.98 39.2533 306.347 39.9933 305.5 40.52C304.66 41.04 303.717 41.3 302.67 41.3ZM298.68 36.1V34.67H306.66V36.1H298.68ZM314.046 41.3C313.04 41.3 312.176 41.05 311.456 40.55C310.736 40.0433 310.18 39.36 309.786 38.5C309.4 37.64 309.206 36.67 309.206 35.59C309.206 34.51 309.4 33.54 309.786 32.68C310.18 31.82 310.736 31.1433 311.456 30.65C312.176 30.15 313.036 29.9 314.036 29.9C315.056 29.9 315.913 30.1467 316.606 30.64C317.3 31.1333 317.823 31.81 318.176 32.67C318.536 33.53 318.716 34.5033 318.716 35.59C318.716 36.6633 318.536 37.6333 318.176 38.5C317.823 39.36 317.3 40.0433 316.606 40.55C315.913 41.05 315.06 41.3 314.046 41.3ZM314.266 39.67C314.993 39.67 315.59 39.4967 316.056 39.15C316.523 38.7967 316.866 38.3133 317.086 37.7C317.313 37.08 317.426 36.3767 317.426 35.59C317.426 34.79 317.313 34.0867 317.086 33.48C316.866 32.8667 316.526 32.39 316.066 32.05C315.606 31.7033 315.023 31.53 314.316 31.53C313.583 31.53 312.976 31.71 312.496 32.07C312.023 32.43 311.67 32.9167 311.436 33.53C311.21 34.1433 311.096 34.83 311.096 35.59C311.096 36.3567 311.213 37.05 311.446 37.67C311.68 38.2833 312.03 38.77 312.496 39.13C312.97 39.49 313.56 39.67 314.266 39.67ZM317.426 41V33.05H317.226V26.6H319.016V41H317.426Z" fill="white"/>
<g filter="url(#filter2_d_19_123)">
<circle cx="51" cy="34" r="25" fill="#EBC4FF"/>
</g>
<path d="M56.5229 35H43.3333V33H56.5229L50.4563 27.4L52 26L60.6667 34L52 42L50.4563 40.6L56.5229 35Z" fill="#2E236C"/>
<path d="M104.91 39.43L103.79 38.32L107.47 34.7L103.79 31.08L104.91 29.97L109.64 34.7L104.91 39.43Z" fill="white" fill-opacity="0.3"/>
<path d="M121.355 39.43L120.235 38.32L123.915 34.7L120.235 31.08L121.355 29.97L126.085 34.7L121.355 39.43Z" fill="white" fill-opacity="0.5"/>
<path d="M137.801 39.43L136.681 38.32L140.361 34.7L136.681 31.08L137.801 29.97L142.531 34.7L137.801 39.43Z" fill="white"/>
<defs>
<filter id="filter0_d_19_123" x="0" y="0" width="365" height="75" filterUnits="userSpaceOnUse" color-interpolation-filters="sRGB">
<feFlood flood-opacity="0" result="BackgroundImageFix"/>
<feColorMatrix in="SourceAlpha" type="matrix" values="0 0 0 0 0 0 0 0 0 0 0 0 0 0 0 0 0 0 127 0" result="hardAlpha"/>
<feOffset dy="4"/>
<feGaussianBlur stdDeviation="2"/>
<feComposite in2="hardAlpha" operator="out"/>
<feColorMatrix type="matrix" values="0 0 0 0 0 0 0 0 0 0 0 0 0 0 0 0 0 0 0.25 0"/>
<feBlend mode="normal" in2="BackgroundImageFix" result="effect1_dropShadow_19_123"/>
<feBlend mode="normal" in="SourceGraphic" in2="effect1_dropShadow_19_123" result="shape"/>
</filter>
<filter id="filter1_d_19_123" x="0" y="0" width="365" height="75" filterUnits="userSpaceOnUse" color-interpolation-filters="sRGB">
<feFlood flood-opacity="0" result="BackgroundImageFix"/>
<feColorMatrix in="SourceAlpha" type="matrix" values="0 0 0 0 0 0 0 0 0 0 0 0 0 0 0 0 0 0 127 0" result="hardAlpha"/>
<feOffset dy="4"/>
<feGaussianBlur stdDeviation="2"/>
<feComposite in2="hardAlpha" operator="out"/>
<feColorMatrix type="matrix" values="0 0 0 0 0 0 0 0 0 0 0 0 0 0 0 0 0 0 0.25 0"/>
<feBlend mode="normal" in2="BackgroundImageFix" result="effect1_dropShadow_19_123"/>
<feBlend mode="normal" in="SourceGraphic" in2="effect1_dropShadow_19_123" result="shape"/>
</filter>
<filter id="filter2_d_19_123" x="22" y="9" width="58" height="58" filterUnits="userSpaceOnUse" color-interpolation-filters="sRGB">
<feFlood flood-opacity="0" result="BackgroundImageFix"/>
<feColorMatrix in="SourceAlpha" type="matrix" values="0 0 0 0 0 0 0 0 0 0 0 0 0 0 0 0 0 0 127 0" result="hardAlpha"/>
<feOffset dy="4"/>
<feGaussianBlur stdDeviation="2"/>
<feComposite in2="hardAlpha" operator="out"/>
<feColorMatrix type="matrix" values="0 0 0 0 0 0 0 0 0 0 0 0 0 0 0 0 0 0 0.25 0"/>
<feBlend mode="normal" in2="BackgroundImageFix" result="effect1_dropShadow_19_123"/>
<feBlend mode="normal" in="SourceGraphic" in2="effect1_dropShadow_19_123" result="shape"/>
</filter>
<linearGradient id="paint0_linear_19_123" x1="182.5" y1="0" x2="182.5" y2="67" gradientUnits="userSpaceOnUse">
<stop stop-color="#433D8B"/>
<stop offset="1" stop-color="#3F39A1"/>
</linearGradient>
<linearGradient id="paint1_linear_19_123" x1="182.5" y1="0" x2="182.5" y2="67" gradientUnits="userSpaceOnUse">
<stop stop-color="#433D8B"/>
<stop offset="1" stop-color="#3F39A1"/>
</linearGradient>
</defs>
</svg>
