<svg width="100" height="100" viewBox="0 0 100 100" fill="none" xmlns="http://www.w3.org/2000/svg">
<g clip-path="url(#clip0_13_68)">
<path d="M83.3333 16.6667V41.6667H75V30.9375L58.4375 47.3958C59.7569 49.3403 60.7638 51.4062 61.4583 53.5937C62.1527 55.7812 62.5 58.0555 62.5 60.4167C62.5 66.8055 60.2777 72.2222 55.8333 76.6667C51.3888 81.1111 45.9722 83.3333 39.5833 83.3333C33.1944 83.3333 27.7777 81.1111 23.3333 76.6667C18.8888 72.2222 16.6666 66.8055 16.6666 60.4167C16.6666 54.0278 18.8888 48.6111 23.3333 44.1667C27.7777 39.7222 33.1944 37.5 39.5833 37.5C41.875 37.5 44.1319 37.8299 46.3541 38.4896C48.5763 39.1493 50.625 40.1736 52.5 41.5625L69.0625 25H58.3333V16.6667H83.3333ZM39.5833 45.8333C35.5555 45.8333 32.118 47.2569 29.2708 50.1042C26.4236 52.9514 25 56.3889 25 60.4167C25 64.4444 26.4236 67.8819 29.2708 70.7292C32.118 73.5764 35.5555 75 39.5833 75C43.6111 75 47.0486 73.5764 49.8958 70.7292C52.743 67.8819 54.1666 64.4444 54.1666 60.4167C54.1666 56.3889 52.743 52.9514 49.8958 50.1042C47.0486 47.2569 43.6111 45.8333 39.5833 45.8333Z" fill="#2E236C"/>
</g>
<defs>
<clipPath id="clip0_13_68">
<rect width="100" height="100" fill="white"/>
</clipPath>
</defs>
</svg>
