<svg width="410" height="71" viewBox="0 0 410 71" fill="none" xmlns="http://www.w3.org/2000/svg">
<rect width="410" height="71" rx="35.5" fill="#433D8B"/>
<g clip-path="url(#clip0_14_46)">
<path d="M205.873 55L203.139 52.5204C199.964 49.6276 197.339 47.1322 195.264 45.0341C193.189 42.936 191.539 41.0525 190.313 39.3835C189.087 37.7146 188.231 36.1807 187.743 34.782C187.256 33.3833 187.012 31.9528 187.012 30.4905C187.012 27.5023 188.003 25.0068 189.983 23.0041C191.963 21.0014 194.431 20 197.386 20C199.021 20 200.577 20.3497 202.054 21.049C203.532 21.7484 204.805 22.7339 205.873 24.0054C206.942 22.7339 208.215 21.7484 209.693 21.049C211.17 20.3497 212.726 20 214.361 20C217.316 20 219.783 21.0014 221.764 23.0041C223.744 25.0068 224.734 27.5023 224.734 30.4905C224.734 31.9528 224.491 33.3833 224.004 34.782C223.516 36.1807 222.66 37.7146 221.434 39.3835C220.208 41.0525 218.557 42.936 216.483 45.0341C214.408 47.1322 211.783 49.6276 208.608 52.5204L205.873 55ZM205.873 49.8501C208.891 47.1163 211.375 44.7718 213.324 42.8168C215.272 40.8617 216.813 39.161 217.944 37.7146C219.076 36.2682 219.862 34.9807 220.302 33.8522C220.742 32.7237 220.962 31.6031 220.962 30.4905C220.962 28.5831 220.334 26.9936 219.076 25.7221C217.819 24.4505 216.247 23.8147 214.361 23.8147C212.883 23.8147 211.516 24.2359 210.259 25.0783C209.001 25.9208 208.137 26.9936 207.665 28.297H204.082C203.61 26.9936 202.746 25.9208 201.488 25.0783C200.231 24.2359 198.863 23.8147 197.386 23.8147C195.5 23.8147 193.928 24.4505 192.671 25.7221C191.413 26.9936 190.785 28.5831 190.785 30.4905C190.785 31.6031 191.005 32.7237 191.445 33.8522C191.885 34.9807 192.671 36.2682 193.802 37.7146C194.934 39.161 196.474 40.8617 198.423 42.8168C200.372 44.7718 202.856 47.1163 205.873 49.8501Z" fill="white"/>
</g>
<path d="M338.25 37C336.115 37 334.287 36.184 332.766 34.5521C331.245 32.9201 330.485 30.9583 330.485 28.6666C330.485 26.375 331.245 24.4132 332.766 22.7812C334.287 21.1493 336.115 20.3333 338.25 20.3333C340.385 20.3333 342.213 21.1493 343.734 22.7812C345.255 24.4132 346.015 26.375 346.015 28.6666C346.015 30.9583 345.255 32.9201 343.734 34.5521C342.213 36.184 340.385 37 338.25 37ZM322.72 53.6666V47.8333C322.72 46.6528 323.003 45.5677 323.569 44.5781C324.135 43.5885 324.887 42.8333 325.826 42.3125C327.832 41.2361 329.87 40.4288 331.941 39.8906C334.012 39.3524 336.115 39.0833 338.25 39.0833C340.385 39.0833 342.489 39.3524 344.559 39.8906C346.63 40.4288 348.668 41.2361 350.674 42.3125C351.613 42.8333 352.365 43.5885 352.931 44.5781C353.497 45.5677 353.78 46.6528 353.78 47.8333V53.6666H322.72ZM326.602 49.5H349.898V47.8333C349.898 47.4514 349.809 47.1041 349.631 46.7916C349.453 46.4791 349.218 46.2361 348.927 46.0625C347.18 45.125 345.417 44.4219 343.637 43.9531C341.858 43.4844 340.062 43.25 338.25 43.25C336.438 43.25 334.642 43.4844 332.863 43.9531C331.083 44.4219 329.32 45.125 327.573 46.0625C327.282 46.2361 327.047 46.4791 326.869 46.7916C326.691 47.1041 326.602 47.4514 326.602 47.8333V49.5ZM338.25 32.8333C339.318 32.8333 340.232 32.4253 340.992 31.6094C341.752 30.7934 342.133 29.8125 342.133 28.6666C342.133 27.5208 341.752 26.5399 340.992 25.7239C340.232 24.908 339.318 24.5 338.25 24.5C337.182 24.5 336.268 24.908 335.508 25.7239C334.748 26.5399 334.367 27.5208 334.367 28.6666C334.367 29.8125 334.748 30.7934 335.508 31.6094C336.268 32.4253 337.182 32.8333 338.25 32.8333Z" fill="white"/>
<circle cx="76.75" cy="37.5" r="24.5" fill="#F8EFFD"/>
<path d="M67.0909 47.6667H71.75V37.6667H81.0682V47.6667H85.7273V32.6667L76.4091 25.1667L67.0909 32.6667V47.6667ZM63.9849 51V31L76.4091 21L88.8333 31V51H77.9621V41H74.8561V51H63.9849Z" fill="#2E236C"/>
<defs>
<clipPath id="clip0_14_46">
<rect width="38" height="35" fill="white" transform="translate(186.364 20)"/>
</clipPath>
</defs>
</svg>
