<svg width="100" height="100" viewBox="0 0 100 100" fill="none" xmlns="http://www.w3.org/2000/svg">
<g clip-path="url(#clip0_13_80)">
<path d="M45.8334 87.5V79.1667H37.5V70.8333H45.8334V62.0833C40.3473 61.1111 35.8507 58.4896 32.3438 54.2187C28.8368 49.9479 27.0834 45 27.0834 39.375C27.0834 33.0555 29.323 27.691 33.8021 23.2812C38.2813 18.8715 43.6806 16.6667 50 16.6667C56.3195 16.6667 61.7188 18.8715 66.198 23.2812C70.6771 27.691 72.9167 33.0555 72.9167 39.375C72.9167 45 71.1632 49.9479 67.6563 54.2187C64.1493 58.4896 59.6528 61.1111 54.1667 62.0833V70.8333H62.5V79.1667H54.1667V87.5H45.8334ZM50 54.1667C54.0278 54.1667 57.4653 52.743 60.3125 49.8958C63.1598 47.0486 64.5834 43.6111 64.5834 39.5833C64.5834 35.5555 63.1598 32.118 60.3125 29.2708C57.4653 26.4236 54.0278 25 50 25C45.9723 25 42.5348 26.4236 39.6875 29.2708C36.8403 32.118 35.4167 35.5555 35.4167 39.5833C35.4167 43.6111 36.8403 47.0486 39.6875 49.8958C42.5348 52.743 45.9723 54.1667 50 54.1667Z" fill="#2E236C"/>
<path d="M45.8333 87.5V79.1667H37.4999V70.8333H45.8333V62.0833C40.3471 61.1111 35.8506 58.4896 32.3437 54.2187C28.8367 49.9479 27.0833 45 27.0833 39.375C27.0833 33.0555 29.3228 27.691 33.802 23.2812C38.2812 18.8715 43.6805 16.6667 49.9999 16.6667C56.3194 16.6667 61.7187 18.8715 66.1978 23.2812C70.677 27.691 72.9166 33.0555 72.9166 39.375C72.9166 45 71.1631 49.9479 67.6562 54.2187C64.1492 58.4896 59.6527 61.1111 54.1666 62.0833V70.8333H62.4999V79.1667H54.1666V87.5H45.8333ZM49.9999 54.1667C54.0277 54.1667 57.4652 52.743 60.3124 49.8958C63.1596 47.0486 64.5833 43.6111 64.5833 39.5833C64.5833 35.5555 63.1596 32.118 60.3124 29.2708C57.4652 26.4236 54.0277 25 49.9999 25C45.9721 25 42.5346 26.4236 39.6874 29.2708C36.8402 32.118 35.4166 35.5555 35.4166 39.5833C35.4166 43.6111 36.8402 47.0486 39.6874 49.8958C42.5346 52.743 45.9721 54.1667 49.9999 54.1667Z" fill="#2E236C"/>
</g>
<defs>
<clipPath id="clip0_13_80">
<rect width="100" height="100" fill="white"/>
</clipPath>
</defs>
</svg>
