<svg width="365" height="75" viewBox="0 0 365 75" fill="none" xmlns="http://www.w3.org/2000/svg">
<rect width="365" height="75" fill="#F5F5F5"/>
<g clip-path="url(#clip0_0_1)">
<rect width="440" height="956" transform="translate(-37 -692)" fill="#F8EFFD"/>
<g filter="url(#filter0_d_0_1)">
<rect x="4" width="357" height="67" rx="30" fill="url(#paint0_linear_0_1)"/>
<rect x="4.5" y="0.5" width="356" height="66" rx="29.5" stroke="#2E236C"/>
</g>
<circle cx="63" cy="34" r="22" fill="white"/>
<g clip-path="url(#clip1_0_1)">
<path d="M77.6425 34.2807C77.6425 33.0516 77.5428 32.1547 77.327 31.2245H63.292V36.772H71.5302C71.3642 38.1507 70.4673 40.2268 68.4741 41.622L68.4462 41.8077L72.8837 45.2454L73.1912 45.2761C76.0147 42.6684 77.6425 38.8316 77.6425 34.2807Z" fill="#4285F4"/>
<path d="M63.292 48.897C67.328 48.897 70.7163 47.5681 73.1912 45.2761L68.4741 41.622C67.2118 42.5023 65.5176 43.1168 63.292 43.1168C59.339 43.1168 55.9839 40.5092 54.7879 36.905L54.6126 36.9199L49.9983 40.4909L49.938 40.6586C52.3962 45.5418 57.4454 48.897 63.292 48.897Z" fill="#34A853"/>
<path d="M54.7879 36.9049C54.4723 35.9748 54.2897 34.9782 54.2897 33.9484C54.2897 32.9186 54.4723 31.9221 54.7713 30.992L54.7629 30.7939L50.0908 27.1655L49.938 27.2382C48.9248 29.2646 48.3435 31.5401 48.3435 33.9484C48.3435 36.3568 48.9248 38.6322 49.938 40.6586L54.7879 36.9049Z" fill="#FBBC05"/>
<path d="M63.292 24.78C66.0989 24.78 67.9924 25.9925 69.072 27.0058L73.2908 22.8866C70.6998 20.4782 67.328 19 63.292 19C57.4454 19 52.3962 22.3551 49.938 27.2382L54.7713 30.992C55.9839 27.3877 59.339 24.78 63.292 24.78Z" fill="#EB4335"/>
</g>
<path d="M125.32 41.3C123.887 41.3 122.67 40.9833 121.67 40.35C120.67 39.7167 119.907 38.8367 119.38 37.71C118.86 36.5833 118.6 35.28 118.6 33.8C118.6 32.32 118.86 31.0167 119.38 29.89C119.907 28.7633 120.67 27.8833 121.67 27.25C122.67 26.6167 123.887 26.3 125.32 26.3C126.987 26.3 128.357 26.7233 129.43 27.57C130.51 28.4167 131.253 29.5567 131.66 30.99L129.85 31.47C129.557 30.3967 129.033 29.55 128.28 28.93C127.527 28.31 126.54 28 125.32 28C124.247 28 123.353 28.2433 122.64 28.73C121.927 29.2167 121.39 29.8967 121.03 30.77C120.67 31.6367 120.487 32.6467 120.48 33.8C120.473 34.9467 120.65 35.9567 121.01 36.83C121.37 37.6967 121.91 38.3767 122.63 38.87C123.35 39.3567 124.247 39.6 125.32 39.6C126.54 39.6 127.527 39.29 128.28 38.67C129.033 38.0433 129.557 37.1967 129.85 36.13L131.66 36.61C131.253 38.0367 130.51 39.1767 129.43 40.03C128.357 40.8767 126.987 41.3 125.32 41.3ZM138.453 41.3C137.38 41.3 136.453 41.0567 135.673 40.57C134.9 40.0833 134.303 39.41 133.883 38.55C133.463 37.69 133.253 36.7033 133.253 35.59C133.253 34.4567 133.466 33.4633 133.893 32.61C134.32 31.7567 134.923 31.0933 135.703 30.62C136.483 30.14 137.4 29.9 138.453 29.9C139.533 29.9 140.463 30.1433 141.243 30.63C142.023 31.11 142.62 31.78 143.033 32.64C143.453 33.4933 143.663 34.4767 143.663 35.59C143.663 36.7167 143.453 37.71 143.033 38.57C142.613 39.4233 142.013 40.0933 141.233 40.58C140.453 41.06 139.526 41.3 138.453 41.3ZM138.453 39.61C139.573 39.61 140.406 39.2367 140.953 38.49C141.5 37.7433 141.773 36.7767 141.773 35.59C141.773 34.37 141.496 33.4 140.943 32.68C140.39 31.9533 139.56 31.59 138.453 31.59C137.7 31.59 137.08 31.76 136.593 32.1C136.106 32.44 135.743 32.91 135.503 33.51C135.263 34.11 135.143 34.8033 135.143 35.59C135.143 36.8033 135.423 37.7767 135.983 38.51C136.543 39.2433 137.366 39.61 138.453 39.61ZM153.555 41V35.59C153.555 35.0767 153.508 34.5833 153.415 34.11C153.328 33.6367 153.172 33.2133 152.945 32.84C152.725 32.46 152.425 32.16 152.045 31.94C151.672 31.72 151.198 31.61 150.625 31.61C150.178 31.61 149.772 31.6867 149.405 31.84C149.045 31.9867 148.735 32.2133 148.475 32.52C148.215 32.8267 148.012 33.2133 147.865 33.68C147.725 34.14 147.655 34.6833 147.655 35.31L146.485 34.95C146.485 33.9033 146.672 33.0067 147.045 32.26C147.425 31.5067 147.955 30.93 148.635 30.53C149.322 30.1233 150.128 29.92 151.055 29.92C151.755 29.92 152.352 30.03 152.845 30.25C153.338 30.47 153.748 30.7633 154.075 31.13C154.402 31.49 154.658 31.8967 154.845 32.35C155.032 32.7967 155.162 33.2533 155.235 33.72C155.315 34.18 155.355 34.6167 155.355 35.03V41H153.555ZM145.855 41V30.2H147.455V33.09H147.655V41H145.855ZM163.985 41C163.345 41.1267 162.711 41.1767 162.085 41.15C161.465 41.13 160.911 41.0067 160.425 40.78C159.938 40.5467 159.568 40.1867 159.315 39.7C159.101 39.2733 158.985 38.8433 158.965 38.41C158.951 37.97 158.945 37.4733 158.945 36.92V27.2H160.725V36.84C160.725 37.28 160.728 37.6567 160.735 37.97C160.748 38.2833 160.818 38.5533 160.945 38.78C161.185 39.2067 161.565 39.4567 162.085 39.53C162.611 39.6033 163.245 39.5833 163.985 39.47V41ZM156.755 31.67V30.2H163.985V31.67H156.755ZM166.377 28.29V26.45H168.157V28.29H166.377ZM166.377 41V30.2H168.157V41H166.377ZM178.848 41V35.59C178.848 35.0767 178.801 34.5833 178.708 34.11C178.621 33.6367 178.464 33.2133 178.238 32.84C178.018 32.46 177.718 32.16 177.338 31.94C176.964 31.72 176.491 31.61 175.918 31.61C175.471 31.61 175.064 31.6867 174.698 31.84C174.338 31.9867 174.028 32.2133 173.768 32.52C173.508 32.8267 173.304 33.2133 173.158 33.68C173.018 34.14 172.948 34.6833 172.948 35.31L171.778 34.95C171.778 33.9033 171.964 33.0067 172.338 32.26C172.718 31.5067 173.248 30.93 173.928 30.53C174.614 30.1233 175.421 29.92 176.348 29.92C177.048 29.92 177.644 30.03 178.138 30.25C178.631 30.47 179.041 30.7633 179.368 31.13C179.694 31.49 179.951 31.8967 180.138 32.35C180.324 32.7967 180.454 33.2533 180.528 33.72C180.608 34.18 180.648 34.6167 180.648 35.03V41H178.848ZM171.148 41V30.2H172.748V33.09H172.948V41H171.148ZM187.348 41.28C186.654 41.28 186.058 41.17 185.558 40.95C185.064 40.73 184.654 40.4367 184.328 40.07C184.001 39.7033 183.744 39.2967 183.558 38.85C183.371 38.4033 183.238 37.9467 183.158 37.48C183.084 37.0133 183.048 36.5767 183.048 36.17V30.2H184.848V35.61C184.848 36.1167 184.894 36.6067 184.988 37.08C185.081 37.5533 185.238 37.98 185.458 38.36C185.684 38.74 185.984 39.04 186.358 39.26C186.738 39.48 187.211 39.59 187.778 39.59C188.224 39.59 188.631 39.5133 188.998 39.36C189.364 39.2067 189.678 38.98 189.938 38.68C190.198 38.3733 190.398 37.9867 190.538 37.52C190.678 37.0533 190.748 36.51 190.748 35.89L191.918 36.25C191.918 37.29 191.728 38.1867 191.348 38.94C190.974 39.6933 190.444 40.2733 189.758 40.68C189.078 41.08 188.274 41.28 187.348 41.28ZM190.948 41V38.11H190.748V30.2H192.538V41H190.948ZM200.018 41.3C198.958 41.3 198.031 41.0667 197.238 40.6C196.451 40.1267 195.838 39.47 195.398 38.63C194.958 37.7833 194.738 36.7967 194.738 35.67C194.738 34.49 194.954 33.47 195.388 32.61C195.821 31.7433 196.424 31.0767 197.198 30.61C197.978 30.1367 198.891 29.9 199.938 29.9C201.024 29.9 201.948 30.15 202.708 30.65C203.474 31.15 204.048 31.8633 204.428 32.79C204.814 33.7167 204.981 34.82 204.928 36.1H203.128V35.46C203.108 34.1333 202.838 33.1433 202.318 32.49C201.798 31.83 201.024 31.5 199.998 31.5C198.898 31.5 198.061 31.8533 197.488 32.56C196.914 33.2667 196.628 34.28 196.628 35.6C196.628 36.8733 196.914 37.86 197.488 38.56C198.061 39.26 198.878 39.61 199.938 39.61C200.651 39.61 201.271 39.4467 201.798 39.12C202.324 38.7933 202.738 38.3233 203.038 37.71L204.748 38.3C204.328 39.2533 203.694 39.9933 202.848 40.52C202.008 41.04 201.064 41.3 200.018 41.3ZM196.028 36.1V34.67H204.008V36.1H196.028ZM213.458 41L210.158 30.19L211.928 30.2L214.338 38.1L216.768 30.2H218.338L220.758 38.1L223.178 30.2H224.938L221.638 41H220.158L217.548 32.79L214.938 41H213.458ZM226.944 28.29V26.45H228.724V28.29H226.944ZM226.944 41V30.2H228.724V41H226.944ZM237.754 41C237.114 41.1267 236.481 41.1767 235.854 41.15C235.234 41.13 234.681 41.0067 234.194 40.78C233.708 40.5467 233.338 40.1867 233.084 39.7C232.871 39.2733 232.754 38.8433 232.734 38.41C232.721 37.97 232.714 37.4733 232.714 36.92V27.2H234.494V36.84C234.494 37.28 234.498 37.6567 234.504 37.97C234.518 38.2833 234.588 38.5533 234.714 38.78C234.954 39.2067 235.334 39.4567 235.854 39.53C236.381 39.6033 237.014 39.5833 237.754 39.47V41ZM230.524 31.67V30.2H237.754V31.67H230.524ZM247.637 41V35.59C247.637 35.0767 247.59 34.5833 247.497 34.11C247.41 33.6367 247.254 33.2133 247.027 32.84C246.807 32.46 246.507 32.16 246.127 31.94C245.754 31.72 245.28 31.61 244.707 31.61C244.26 31.61 243.854 31.6867 243.487 31.84C243.127 31.9867 242.817 32.2133 242.557 32.52C242.297 32.8267 242.094 33.2133 241.947 33.68C241.807 34.14 241.737 34.6833 241.737 35.31L240.567 34.95C240.567 33.9033 240.754 33.0067 241.127 32.26C241.507 31.5067 242.037 30.93 242.717 30.53C243.404 30.1233 244.21 29.92 245.137 29.92C245.837 29.92 246.434 30.03 246.927 30.25C247.42 30.47 247.83 30.7633 248.157 31.13C248.484 31.49 248.74 31.8967 248.927 32.35C249.114 32.7967 249.244 33.2533 249.317 33.72C249.397 34.18 249.437 34.6167 249.437 35.03V41H247.637ZM239.937 41V26.6H241.537V34.55H241.737V41H239.937ZM261.871 41.3C260.884 41.3 259.984 41.1267 259.171 40.78C258.357 40.4333 257.657 39.9367 257.071 39.29C256.484 38.6367 256.031 37.85 255.711 36.93C255.397 36.0033 255.241 34.96 255.241 33.8C255.241 32.2667 255.514 30.94 256.061 29.82C256.607 28.7 257.377 27.8367 258.371 27.23C259.364 26.6167 260.531 26.31 261.871 26.31C263.484 26.31 264.784 26.6867 265.771 27.44C266.757 28.1867 267.437 29.21 267.811 30.51L266.011 30.88C265.711 30.0067 265.217 29.31 264.531 28.79C263.844 28.27 262.987 28.01 261.961 28.01C260.887 28.0033 259.994 28.2433 259.281 28.73C258.574 29.21 258.041 29.8867 257.681 30.76C257.321 31.6333 257.137 32.6467 257.131 33.8C257.124 34.9467 257.301 35.9533 257.661 36.82C258.021 37.6867 258.557 38.3667 259.271 38.86C259.991 39.3467 260.887 39.5933 261.961 39.6C262.887 39.6067 263.667 39.43 264.301 39.07C264.934 38.71 265.424 38.19 265.771 37.51C266.117 36.83 266.327 36.0133 266.401 35.06H263.341V33.59H268.281C268.301 33.7233 268.311 33.8833 268.311 34.07C268.317 34.25 268.321 34.3733 268.321 34.44C268.321 35.7533 268.074 36.93 267.581 37.97C267.094 39.0033 266.371 39.8167 265.411 40.41C264.457 41.0033 263.277 41.3 261.871 41.3ZM274.918 41.3C273.845 41.3 272.918 41.0567 272.138 40.57C271.365 40.0833 270.768 39.41 270.348 38.55C269.928 37.69 269.718 36.7033 269.718 35.59C269.718 34.4567 269.931 33.4633 270.358 32.61C270.785 31.7567 271.388 31.0933 272.168 30.62C272.948 30.14 273.865 29.9 274.918 29.9C275.998 29.9 276.928 30.1433 277.708 30.63C278.488 31.11 279.085 31.78 279.498 32.64C279.918 33.4933 280.128 34.4767 280.128 35.59C280.128 36.7167 279.918 37.71 279.498 38.57C279.078 39.4233 278.478 40.0933 277.698 40.58C276.918 41.06 275.991 41.3 274.918 41.3ZM274.918 39.61C276.038 39.61 276.871 39.2367 277.418 38.49C277.965 37.7433 278.238 36.7767 278.238 35.59C278.238 34.37 277.961 33.4 277.408 32.68C276.855 31.9533 276.025 31.59 274.918 31.59C274.165 31.59 273.545 31.76 273.058 32.1C272.571 32.44 272.208 32.91 271.968 33.51C271.728 34.11 271.608 34.8033 271.608 35.59C271.608 36.8033 271.888 37.7767 272.448 38.51C273.008 39.2433 273.831 39.61 274.918 39.61ZM286.93 41.3C285.856 41.3 284.93 41.0567 284.15 40.57C283.376 40.0833 282.78 39.41 282.36 38.55C281.94 37.69 281.73 36.7033 281.73 35.59C281.73 34.4567 281.943 33.4633 282.37 32.61C282.796 31.7567 283.4 31.0933 284.18 30.62C284.96 30.14 285.876 29.9 286.93 29.9C288.01 29.9 288.94 30.1433 289.72 30.63C290.5 31.11 291.096 31.78 291.51 32.64C291.93 33.4933 292.14 34.4767 292.14 35.59C292.14 36.7167 291.93 37.71 291.51 38.57C291.09 39.4233 290.49 40.0933 289.71 40.58C288.93 41.06 288.003 41.3 286.93 41.3ZM286.93 39.61C288.05 39.61 288.883 39.2367 289.43 38.49C289.976 37.7433 290.25 36.7767 290.25 35.59C290.25 34.37 289.973 33.4 289.42 32.68C288.866 31.9533 288.036 31.59 286.93 31.59C286.176 31.59 285.556 31.76 285.07 32.1C284.583 32.44 284.22 32.91 283.98 33.51C283.74 34.11 283.62 34.8033 283.62 35.59C283.62 36.8033 283.9 37.7767 284.46 38.51C285.02 39.2433 285.843 39.61 286.93 39.61ZM298.711 46.1C298.145 46.1 297.591 46.0133 297.051 45.84C296.511 45.6667 296.015 45.4033 295.561 45.05C295.115 44.7033 294.741 44.2633 294.441 43.73L296.071 42.87C296.338 43.3967 296.715 43.78 297.201 44.02C297.695 44.26 298.201 44.38 298.721 44.38C299.408 44.38 299.978 44.2533 300.431 44C300.885 43.7533 301.218 43.3833 301.431 42.89C301.651 42.3967 301.758 41.7833 301.751 41.05V38.1H301.961V30.2H303.541V41.07C303.541 41.3633 303.531 41.6467 303.511 41.92C303.498 42.1933 303.465 42.4633 303.411 42.73C303.271 43.4967 302.995 44.1267 302.581 44.62C302.168 45.12 301.635 45.49 300.981 45.73C300.328 45.9767 299.571 46.1 298.711 46.1ZM298.581 41.3C297.575 41.3 296.711 41.05 295.991 40.55C295.271 40.0433 294.715 39.36 294.321 38.5C293.935 37.64 293.741 36.67 293.741 35.59C293.741 34.51 293.935 33.54 294.321 32.68C294.715 31.82 295.271 31.1433 295.991 30.65C296.711 30.15 297.571 29.9 298.571 29.9C299.591 29.9 300.448 30.1467 301.141 30.64C301.835 31.1333 302.358 31.81 302.711 32.67C303.071 33.53 303.251 34.5033 303.251 35.59C303.251 36.6633 303.071 37.6333 302.711 38.5C302.358 39.36 301.835 40.0433 301.141 40.55C300.448 41.05 299.595 41.3 298.581 41.3ZM298.801 39.67C299.528 39.67 300.125 39.4967 300.591 39.15C301.058 38.7967 301.401 38.3133 301.621 37.7C301.848 37.08 301.961 36.3767 301.961 35.59C301.961 34.79 301.848 34.0867 301.621 33.48C301.401 32.8667 301.061 32.39 300.601 32.05C300.141 31.7033 299.558 31.53 298.851 31.53C298.118 31.53 297.511 31.71 297.031 32.07C296.558 32.43 296.205 32.9167 295.971 33.53C295.745 34.1433 295.631 34.83 295.631 35.59C295.631 36.3567 295.748 37.05 295.981 37.67C296.215 38.2833 296.565 38.77 297.031 39.13C297.505 39.49 298.095 39.67 298.801 39.67ZM306.534 41V26.3H308.314V41H306.534ZM315.994 41.3C314.934 41.3 314.007 41.0667 313.214 40.6C312.427 40.1267 311.814 39.47 311.374 38.63C310.934 37.7833 310.714 36.7967 310.714 35.67C310.714 34.49 310.931 33.47 311.364 32.61C311.797 31.7433 312.401 31.0767 313.174 30.61C313.954 30.1367 314.867 29.9 315.914 29.9C317.001 29.9 317.924 30.15 318.684 30.65C319.451 31.15 320.024 31.8633 320.404 32.79C320.791 33.7167 320.957 34.82 320.904 36.1H319.104V35.46C319.084 34.1333 318.814 33.1433 318.294 32.49C317.774 31.83 317.001 31.5 315.974 31.5C314.874 31.5 314.037 31.8533 313.464 32.56C312.891 33.2667 312.604 34.28 312.604 35.6C312.604 36.8733 312.891 37.86 313.464 38.56C314.037 39.26 314.854 39.61 315.914 39.61C316.627 39.61 317.247 39.4467 317.774 39.12C318.301 38.7933 318.714 38.3233 319.014 37.71L320.724 38.3C320.304 39.2533 319.671 39.9933 318.824 40.52C317.984 41.04 317.041 41.3 315.994 41.3ZM312.004 36.1V34.67H319.984V36.1H312.004Z" fill="white"/>
</g>
<defs>
<filter id="filter0_d_0_1" x="0" y="0" width="365" height="75" filterUnits="userSpaceOnUse" color-interpolation-filters="sRGB">
<feFlood flood-opacity="0" result="BackgroundImageFix"/>
<feColorMatrix in="SourceAlpha" type="matrix" values="0 0 0 0 0 0 0 0 0 0 0 0 0 0 0 0 0 0 127 0" result="hardAlpha"/>
<feOffset dy="4"/>
<feGaussianBlur stdDeviation="2"/>
<feComposite in2="hardAlpha" operator="out"/>
<feColorMatrix type="matrix" values="0 0 0 0 0 0 0 0 0 0 0 0 0 0 0 0 0 0 0.25 0"/>
<feBlend mode="normal" in2="BackgroundImageFix" result="effect1_dropShadow_0_1"/>
<feBlend mode="normal" in="SourceGraphic" in2="effect1_dropShadow_0_1" result="shape"/>
</filter>
<linearGradient id="paint0_linear_0_1" x1="182.5" y1="0" x2="182.5" y2="67" gradientUnits="userSpaceOnUse">
<stop stop-color="#433D8B"/>
<stop offset="1" stop-color="#3F39A1"/>
</linearGradient>
<clipPath id="clip0_0_1">
<rect width="440" height="956" fill="white" transform="translate(-37 -692)"/>
</clipPath>
<clipPath id="clip1_0_1">
<rect width="30" height="30" fill="white" transform="translate(48 19)"/>
</clipPath>
</defs>
</svg>
