<svg width="365" height="75" viewBox="0 0 365 75" fill="none" xmlns="http://www.w3.org/2000/svg">
<rect width="365" height="75" fill="#F5F5F5"/>
<g clip-path="url(#clip0_0_1)">
<rect width="440" height="956" transform="translate(-37 -791)" fill="#F8EFFD"/>
<g filter="url(#filter0_d_0_1)">
<rect x="4" width="357" height="67" rx="30" fill="url(#paint0_linear_0_1)"/>
<rect x="4.5" y="0.5" width="356" height="66" rx="29.5" stroke="#2E236C"/>
</g>
<circle cx="63" cy="34" r="22" fill="white"/>
<g clip-path="url(#clip1_0_1)">
<path d="M71.1871 32.9381C71.2293 37.4781 75.1699 38.9888 75.2135 39.0081C75.1802 39.1146 74.5839 41.161 73.1374 43.2749C71.887 45.1025 70.5893 46.9232 68.545 46.961C66.5363 46.998 65.8903 45.7698 63.5938 45.7698C61.2979 45.7698 60.5802 46.9233 58.6787 46.998C56.7054 47.0727 55.2027 45.0218 53.942 43.201C51.3658 39.4764 49.397 32.6762 52.0406 28.0859C53.3538 25.8064 55.7008 24.3629 58.2481 24.3259C60.1859 24.2889 62.0148 25.6295 63.1994 25.6295C64.3832 25.6295 66.6058 24.0173 68.9423 24.2541C69.9205 24.2948 72.6662 24.6492 74.4292 27.2299C74.2872 27.318 71.1531 29.1425 71.1871 32.9381ZM67.4119 21.79C68.4596 20.5218 69.1647 18.7565 68.9723 17C67.4622 17.0607 65.6362 18.0063 64.5531 19.2737C63.5823 20.3961 62.7322 22.1925 62.9616 23.9142C64.6448 24.0444 66.3642 23.0589 67.4119 21.79Z" fill="black"/>
</g>
<path d="M125.32 41.3C123.887 41.3 122.67 40.9833 121.67 40.35C120.67 39.7167 119.907 38.8367 119.38 37.71C118.86 36.5833 118.6 35.28 118.6 33.8C118.6 32.32 118.86 31.0167 119.38 29.89C119.907 28.7633 120.67 27.8833 121.67 27.25C122.67 26.6167 123.887 26.3 125.32 26.3C126.987 26.3 128.357 26.7233 129.43 27.57C130.51 28.4167 131.253 29.5567 131.66 30.99L129.85 31.47C129.557 30.3967 129.033 29.55 128.28 28.93C127.527 28.31 126.54 28 125.32 28C124.247 28 123.353 28.2433 122.64 28.73C121.927 29.2167 121.39 29.8967 121.03 30.77C120.67 31.6367 120.487 32.6467 120.48 33.8C120.473 34.9467 120.65 35.9567 121.01 36.83C121.37 37.6967 121.91 38.3767 122.63 38.87C123.35 39.3567 124.247 39.6 125.32 39.6C126.54 39.6 127.527 39.29 128.28 38.67C129.033 38.0433 129.557 37.1967 129.85 36.13L131.66 36.61C131.253 38.0367 130.51 39.1767 129.43 40.03C128.357 40.8767 126.987 41.3 125.32 41.3ZM138.453 41.3C137.38 41.3 136.453 41.0567 135.673 40.57C134.9 40.0833 134.303 39.41 133.883 38.55C133.463 37.69 133.253 36.7033 133.253 35.59C133.253 34.4567 133.466 33.4633 133.893 32.61C134.32 31.7567 134.923 31.0933 135.703 30.62C136.483 30.14 137.4 29.9 138.453 29.9C139.533 29.9 140.463 30.1433 141.243 30.63C142.023 31.11 142.62 31.78 143.033 32.64C143.453 33.4933 143.663 34.4767 143.663 35.59C143.663 36.7167 143.453 37.71 143.033 38.57C142.613 39.4233 142.013 40.0933 141.233 40.58C140.453 41.06 139.526 41.3 138.453 41.3ZM138.453 39.61C139.573 39.61 140.406 39.2367 140.953 38.49C141.5 37.7433 141.773 36.7767 141.773 35.59C141.773 34.37 141.496 33.4 140.943 32.68C140.39 31.9533 139.56 31.59 138.453 31.59C137.7 31.59 137.08 31.76 136.593 32.1C136.106 32.44 135.743 32.91 135.503 33.51C135.263 34.11 135.143 34.8033 135.143 35.59C135.143 36.8033 135.423 37.7767 135.983 38.51C136.543 39.2433 137.366 39.61 138.453 39.61ZM153.555 41V35.59C153.555 35.0767 153.508 34.5833 153.415 34.11C153.328 33.6367 153.172 33.2133 152.945 32.84C152.725 32.46 152.425 32.16 152.045 31.94C151.672 31.72 151.198 31.61 150.625 31.61C150.178 31.61 149.772 31.6867 149.405 31.84C149.045 31.9867 148.735 32.2133 148.475 32.52C148.215 32.8267 148.012 33.2133 147.865 33.68C147.725 34.14 147.655 34.6833 147.655 35.31L146.485 34.95C146.485 33.9033 146.672 33.0067 147.045 32.26C147.425 31.5067 147.955 30.93 148.635 30.53C149.322 30.1233 150.128 29.92 151.055 29.92C151.755 29.92 152.352 30.03 152.845 30.25C153.338 30.47 153.748 30.7633 154.075 31.13C154.402 31.49 154.658 31.8967 154.845 32.35C155.032 32.7967 155.162 33.2533 155.235 33.72C155.315 34.18 155.355 34.6167 155.355 35.03V41H153.555ZM145.855 41V30.2H147.455V33.09H147.655V41H145.855ZM163.985 41C163.345 41.1267 162.711 41.1767 162.085 41.15C161.465 41.13 160.911 41.0067 160.425 40.78C159.938 40.5467 159.568 40.1867 159.315 39.7C159.101 39.2733 158.985 38.8433 158.965 38.41C158.951 37.97 158.945 37.4733 158.945 36.92V27.2H160.725V36.84C160.725 37.28 160.728 37.6567 160.735 37.97C160.748 38.2833 160.818 38.5533 160.945 38.78C161.185 39.2067 161.565 39.4567 162.085 39.53C162.611 39.6033 163.245 39.5833 163.985 39.47V41ZM156.755 31.67V30.2H163.985V31.67H156.755ZM166.377 28.29V26.45H168.157V28.29H166.377ZM166.377 41V30.2H168.157V41H166.377ZM178.848 41V35.59C178.848 35.0767 178.801 34.5833 178.708 34.11C178.621 33.6367 178.464 33.2133 178.238 32.84C178.018 32.46 177.718 32.16 177.338 31.94C176.964 31.72 176.491 31.61 175.918 31.61C175.471 31.61 175.064 31.6867 174.698 31.84C174.338 31.9867 174.028 32.2133 173.768 32.52C173.508 32.8267 173.304 33.2133 173.158 33.68C173.018 34.14 172.948 34.6833 172.948 35.31L171.778 34.95C171.778 33.9033 171.964 33.0067 172.338 32.26C172.718 31.5067 173.248 30.93 173.928 30.53C174.614 30.1233 175.421 29.92 176.348 29.92C177.048 29.92 177.644 30.03 178.138 30.25C178.631 30.47 179.041 30.7633 179.368 31.13C179.694 31.49 179.951 31.8967 180.138 32.35C180.324 32.7967 180.454 33.2533 180.528 33.72C180.608 34.18 180.648 34.6167 180.648 35.03V41H178.848ZM171.148 41V30.2H172.748V33.09H172.948V41H171.148ZM187.348 41.28C186.654 41.28 186.058 41.17 185.558 40.95C185.064 40.73 184.654 40.4367 184.328 40.07C184.001 39.7033 183.744 39.2967 183.558 38.85C183.371 38.4033 183.238 37.9467 183.158 37.48C183.084 37.0133 183.048 36.5767 183.048 36.17V30.2H184.848V35.61C184.848 36.1167 184.894 36.6067 184.988 37.08C185.081 37.5533 185.238 37.98 185.458 38.36C185.684 38.74 185.984 39.04 186.358 39.26C186.738 39.48 187.211 39.59 187.778 39.59C188.224 39.59 188.631 39.5133 188.998 39.36C189.364 39.2067 189.678 38.98 189.938 38.68C190.198 38.3733 190.398 37.9867 190.538 37.52C190.678 37.0533 190.748 36.51 190.748 35.89L191.918 36.25C191.918 37.29 191.728 38.1867 191.348 38.94C190.974 39.6933 190.444 40.2733 189.758 40.68C189.078 41.08 188.274 41.28 187.348 41.28ZM190.948 41V38.11H190.748V30.2H192.538V41H190.948ZM200.018 41.3C198.958 41.3 198.031 41.0667 197.238 40.6C196.451 40.1267 195.838 39.47 195.398 38.63C194.958 37.7833 194.738 36.7967 194.738 35.67C194.738 34.49 194.954 33.47 195.388 32.61C195.821 31.7433 196.424 31.0767 197.198 30.61C197.978 30.1367 198.891 29.9 199.938 29.9C201.024 29.9 201.948 30.15 202.708 30.65C203.474 31.15 204.048 31.8633 204.428 32.79C204.814 33.7167 204.981 34.82 204.928 36.1H203.128V35.46C203.108 34.1333 202.838 33.1433 202.318 32.49C201.798 31.83 201.024 31.5 199.998 31.5C198.898 31.5 198.061 31.8533 197.488 32.56C196.914 33.2667 196.628 34.28 196.628 35.6C196.628 36.8733 196.914 37.86 197.488 38.56C198.061 39.26 198.878 39.61 199.938 39.61C200.651 39.61 201.271 39.4467 201.798 39.12C202.324 38.7933 202.738 38.3233 203.038 37.71L204.748 38.3C204.328 39.2533 203.694 39.9933 202.848 40.52C202.008 41.04 201.064 41.3 200.018 41.3ZM196.028 36.1V34.67H204.008V36.1H196.028ZM213.458 41L210.158 30.19L211.928 30.2L214.338 38.1L216.768 30.2H218.338L220.758 38.1L223.178 30.2H224.938L221.638 41H220.158L217.548 32.79L214.938 41H213.458ZM226.944 28.29V26.45H228.724V28.29H226.944ZM226.944 41V30.2H228.724V41H226.944ZM237.754 41C237.114 41.1267 236.481 41.1767 235.854 41.15C235.234 41.13 234.681 41.0067 234.194 40.78C233.708 40.5467 233.338 40.1867 233.084 39.7C232.871 39.2733 232.754 38.8433 232.734 38.41C232.721 37.97 232.714 37.4733 232.714 36.92V27.2H234.494V36.84C234.494 37.28 234.498 37.6567 234.504 37.97C234.518 38.2833 234.588 38.5533 234.714 38.78C234.954 39.2067 235.334 39.4567 235.854 39.53C236.381 39.6033 237.014 39.5833 237.754 39.47V41ZM230.524 31.67V30.2H237.754V31.67H230.524ZM247.637 41V35.59C247.637 35.0767 247.59 34.5833 247.497 34.11C247.41 33.6367 247.254 33.2133 247.027 32.84C246.807 32.46 246.507 32.16 246.127 31.94C245.754 31.72 245.28 31.61 244.707 31.61C244.26 31.61 243.854 31.6867 243.487 31.84C243.127 31.9867 242.817 32.2133 242.557 32.52C242.297 32.8267 242.094 33.2133 241.947 33.68C241.807 34.14 241.737 34.6833 241.737 35.31L240.567 34.95C240.567 33.9033 240.754 33.0067 241.127 32.26C241.507 31.5067 242.037 30.93 242.717 30.53C243.404 30.1233 244.21 29.92 245.137 29.92C245.837 29.92 246.434 30.03 246.927 30.25C247.42 30.47 247.83 30.7633 248.157 31.13C248.484 31.49 248.74 31.8967 248.927 32.35C249.114 32.7967 249.244 33.2533 249.317 33.72C249.397 34.18 249.437 34.6167 249.437 35.03V41H247.637ZM239.937 41V26.6H241.537V34.55H241.737V41H239.937ZM255.041 41L259.861 26.6H262.341L267.161 41H265.311L260.801 27.64H261.361L256.891 41H255.041ZM257.361 37.63V35.96H264.841V37.63H257.361ZM273.911 41.3C272.897 41.3 272.044 41.05 271.351 40.55C270.657 40.0433 270.131 39.36 269.771 38.5C269.417 37.6333 269.241 36.6633 269.241 35.59C269.241 34.5033 269.417 33.53 269.771 32.67C270.131 31.81 270.657 31.1333 271.351 30.64C272.051 30.1467 272.907 29.9 273.921 29.9C274.921 29.9 275.781 30.15 276.501 30.65C277.227 31.1433 277.784 31.82 278.171 32.68C278.557 33.54 278.751 34.51 278.751 35.59C278.751 36.67 278.557 37.64 278.171 38.5C277.784 39.36 277.227 40.0433 276.501 40.55C275.781 41.05 274.917 41.3 273.911 41.3ZM268.941 45.8V30.2H270.531V38.15H270.731V45.8H268.941ZM273.691 39.67C274.404 39.67 274.994 39.49 275.461 39.13C275.927 38.77 276.277 38.2833 276.511 37.67C276.744 37.05 276.861 36.3567 276.861 35.59C276.861 34.83 276.744 34.1433 276.511 33.53C276.284 32.9167 275.931 32.43 275.451 32.07C274.977 31.71 274.374 31.53 273.641 31.53C272.941 31.53 272.361 31.7033 271.901 32.05C271.441 32.39 271.097 32.8667 270.871 33.48C270.644 34.0867 270.531 34.79 270.531 35.59C270.531 36.3767 270.641 37.08 270.861 37.7C271.087 38.3133 271.434 38.7967 271.901 39.15C272.367 39.4967 272.964 39.67 273.691 39.67ZM285.903 41.3C284.89 41.3 284.036 41.05 283.343 40.55C282.65 40.0433 282.123 39.36 281.763 38.5C281.41 37.6333 281.233 36.6633 281.233 35.59C281.233 34.5033 281.41 33.53 281.763 32.67C282.123 31.81 282.65 31.1333 283.343 30.64C284.043 30.1467 284.9 29.9 285.913 29.9C286.913 29.9 287.773 30.15 288.493 30.65C289.22 31.1433 289.776 31.82 290.163 32.68C290.55 33.54 290.743 34.51 290.743 35.59C290.743 36.67 290.55 37.64 290.163 38.5C289.776 39.36 289.22 40.0433 288.493 40.55C287.773 41.05 286.91 41.3 285.903 41.3ZM280.933 45.8V30.2H282.523V38.15H282.723V45.8H280.933ZM285.683 39.67C286.396 39.67 286.986 39.49 287.453 39.13C287.92 38.77 288.27 38.2833 288.503 37.67C288.736 37.05 288.853 36.3567 288.853 35.59C288.853 34.83 288.736 34.1433 288.503 33.53C288.276 32.9167 287.923 32.43 287.443 32.07C286.97 31.71 286.366 31.53 285.633 31.53C284.933 31.53 284.353 31.7033 283.893 32.05C283.433 32.39 283.09 32.8667 282.863 33.48C282.636 34.0867 282.523 34.79 282.523 35.59C282.523 36.3767 282.633 37.08 282.853 37.7C283.08 38.3133 283.426 38.7967 283.893 39.15C284.36 39.4967 284.956 39.67 285.683 39.67ZM293.135 41V26.3H294.915V41H293.135ZM302.596 41.3C301.536 41.3 300.609 41.0667 299.816 40.6C299.029 40.1267 298.416 39.47 297.976 38.63C297.536 37.7833 297.316 36.7967 297.316 35.67C297.316 34.49 297.532 33.47 297.966 32.61C298.399 31.7433 299.002 31.0767 299.776 30.61C300.556 30.1367 301.469 29.9 302.516 29.9C303.602 29.9 304.526 30.15 305.286 30.65C306.052 31.15 306.626 31.8633 307.006 32.79C307.392 33.7167 307.559 34.82 307.506 36.1H305.706V35.46C305.686 34.1333 305.416 33.1433 304.896 32.49C304.376 31.83 303.602 31.5 302.576 31.5C301.476 31.5 300.639 31.8533 300.066 32.56C299.492 33.2667 299.206 34.28 299.206 35.6C299.206 36.8733 299.492 37.86 300.066 38.56C300.639 39.26 301.456 39.61 302.516 39.61C303.229 39.61 303.849 39.4467 304.376 39.12C304.902 38.7933 305.316 38.3233 305.616 37.71L307.326 38.3C306.906 39.2533 306.272 39.9933 305.426 40.52C304.586 41.04 303.642 41.3 302.596 41.3ZM298.606 36.1V34.67H306.586V36.1H298.606Z" fill="white"/>
</g>
<defs>
<filter id="filter0_d_0_1" x="0" y="0" width="365" height="75" filterUnits="userSpaceOnUse" color-interpolation-filters="sRGB">
<feFlood flood-opacity="0" result="BackgroundImageFix"/>
<feColorMatrix in="SourceAlpha" type="matrix" values="0 0 0 0 0 0 0 0 0 0 0 0 0 0 0 0 0 0 127 0" result="hardAlpha"/>
<feOffset dy="4"/>
<feGaussianBlur stdDeviation="2"/>
<feComposite in2="hardAlpha" operator="out"/>
<feColorMatrix type="matrix" values="0 0 0 0 0 0 0 0 0 0 0 0 0 0 0 0 0 0 0.25 0"/>
<feBlend mode="normal" in2="BackgroundImageFix" result="effect1_dropShadow_0_1"/>
<feBlend mode="normal" in="SourceGraphic" in2="effect1_dropShadow_0_1" result="shape"/>
</filter>
<linearGradient id="paint0_linear_0_1" x1="182.5" y1="0" x2="182.5" y2="67" gradientUnits="userSpaceOnUse">
<stop stop-color="#433D8B"/>
<stop offset="1" stop-color="#3F39A1"/>
</linearGradient>
<clipPath id="clip0_0_1">
<rect width="440" height="956" fill="white" transform="translate(-37 -791)"/>
</clipPath>
<clipPath id="clip1_0_1">
<rect width="30" height="30" fill="white" transform="translate(48 17)"/>
</clipPath>
</defs>
</svg>
